/* XPM */
static char *a2e3816e5ce44fb7cd647f557fd5456e[] = {
/* columns rows colors chars-per-pixel */
"16 16 99 2 ",
"   c #F87800",
".  c #F87C00",
"X  c #F88300",
"o  c #F98500",
"O  c #F98A00",
"+  c #F98C00",
"@  c #F98D00",
"#  c #F98E00",
"$  c #F98F00",
"%  c #F98F08",
"&  c #F99100",
"*  c #F99300",
"=  c #F99102",
"-  c #F99003",
";  c #F99400",
":  c #F99602",
">  c #FA9004",
",  c #FA9505",
"<  c #F99506",
"1  c #F99708",
"2  c #F99609",
"3  c #FA9708",
"4  c #FA960B",
"5  c #F9940D",
"6  c #FA9908",
"7  c #FA9809",
"8  c #FA9909",
"9  c #F9980A",
"0  c #FA980A",
"q  c #FA9810",
"w  c #FA9C13",
"e  c #FA9D13",
"r  c #FA9D15",
"t  c #FA9E14",
"y  c #FA9D16",
"u  c #FA9E17",
"i  c #FA9E19",
"p  c #FA9E1A",
"a  c #FA9F1A",
"s  c #FA9F1B",
"d  c #FA9F1C",
"f  c #FAA01A",
"g  c #FAA01C",
"h  c #FAA01D",
"j  c #FAA11F",
"k  c #FAA21F",
"l  c #FA9F26",
"z  c #FAA220",
"x  c #FAA320",
"c  c #FAA221",
"v  c #FBA323",
"b  c #FAA325",
"n  c #FAA126",
"m  c #FAA62C",
"M  c #FAA039",
"N  c #FBA739",
"B  c #FBAD45",
"V  c #FBAB49",
"C  c #FBB043",
"Z  c #FCB246",
"A  c #FBB453",
"S  c #FCB450",
"D  c #FBB554",
"F  c #FBB359",
"G  c #FBB85F",
"H  c #FBB460",
"J  c #FBB862",
"K  c #FCBB65",
"L  c #FBB76D",
"P  c #FCBD68",
"I  c #FCBF6A",
"U  c #FCC274",
"Y  c #FCC779",
"T  c #FCC17D",
"R  c #FCC37F",
"E  c #FCC77E",
"W  c #FCC87F",
"Q  c #FCCB8B",
"!  c #FCCE90",
"~  c #FCCA96",
"^  c #FCCF94",
"/  c #FDD096",
"(  c #FDD8A8",
")  c #FDDAAB",
"_  c #FDDAB3",
"`  c #FDDFB8",
"'  c #FEE5CB",
"]  c #FEEAD9",
"[  c #FFEFDD",
"{  c #FEEEDE",
"}  c #FFF5EB",
"|  c #FEF3ED",
" . c #FFF6F0",
".. c #FFF7F7",
"X. c #FFF8F3",
"o. c #FFF9F8",
"O. c #FFFCF8",
"+. c gray100",
"@. c None",
/* pixels */
"@.@.@.@.@.@.@.@.@.s @.@.@.@.@.@.",
"@.@.@.@.@.@.@.k @.@.b @.@.@.@.@.",
"@.@.@.@.@.d d 3 U S 0 k @.@.@.@.",
"@.@.@.s d s 3 O F Z e q > @.@.@.",
"@.@.s x 3 > V J M O 6 P Q < @.@.",
"@.s s 3 N Q _ | ) + + I ^ < v @.",
"@.s d ; C X.+.^ [ X.m = = k @.@.",
"@.s s x X Q +.  G +.N ; s s @.@.",
"@.s s s + Y +.( O.X.b 0 s s @.@.",
"@.s s k o T +.= 5 +.` + s s @.@.",
"s s s 0 b { +.D E +.! + s s @.@.",
"@.s s = A ' ] ..} K < r s s @.@.",
"@.@.s x 0 % L ~ G . r k s s @.@.",
"@.@.@.s d f r e y k s s @.@.@.@.",
"@.@.@.@.@.d r r y d s @.@.@.@.@.",
"@.@.@.@.@.@.d s d @.@.@.@.@.@.@."
};
