/* XPM */
static char *b762ffa0546646fde38712e45538e0cb[] = {
/* columns rows colors chars-per-pixel */
"32 32 217 2 ",
"   c #F77000",
".  c #F87200",
"X  c #F87300",
"o  c #F87600",
"O  c #F87900",
"+  c #F87A00",
"@  c #F87B00",
"#  c #F87C00",
"$  c #F87D00",
"%  c #F87E00",
"&  c #F97F00",
"*  c #F98000",
"=  c #F88200",
"-  c #F88400",
";  c #F98700",
":  c #F98800",
">  c #F98900",
",  c #F88A00",
"<  c #F98A00",
"1  c #F98B00",
"2  c #F98C00",
"3  c #F88D00",
"4  c #F98D00",
"5  c #F98E00",
"6  c #F98F00",
"7  c #F99000",
"8  c #F99100",
"9  c #F99200",
"0  c #FA9200",
"q  c #F99003",
"w  c #F99303",
"e  c #F99500",
"r  c #F99401",
"t  c #FA9500",
"y  c #F99403",
"u  c #F99004",
"i  c #F99304",
"p  c #F99305",
"a  c #FA9307",
"s  c #F99404",
"d  c #F99505",
"f  c #FA9404",
"g  c #F99604",
"h  c #F99607",
"j  c #FA9606",
"k  c #FA9607",
"l  c #F99800",
"z  c #F99608",
"x  c #F9970A",
"c  c #F9970B",
"v  c #FA940C",
"b  c #FA970F",
"n  c #FA9B08",
"m  c #FA980B",
"M  c #FA9B0A",
"N  c #F9990F",
"B  c #FA990E",
"V  c #FA990F",
"C  c #F99A0F",
"Z  c #F99310",
"A  c #F99610",
"S  c #F99B11",
"D  c #FA9B11",
"F  c #F99B12",
"G  c #FA9B13",
"H  c #FA9D11",
"J  c #FA9D13",
"K  c #FA9B14",
"L  c #FA9B17",
"P  c #FA9C14",
"I  c #FA9C15",
"U  c #FA9D15",
"Y  c #FA9D16",
"T  c #FA9D17",
"R  c #FA9E16",
"E  c #FA9E17",
"W  c #FA9F17",
"Q  c #F9941B",
"!  c #FA961A",
"~  c #FA9D18",
"^  c #F99F19",
"/  c #FA9E18",
"(  c #FB9E18",
")  c #FA9F18",
"_  c #FA9E19",
"`  c #FB9E19",
"'  c #FA9F19",
"]  c #FA9E1A",
"[  c #FA9F1A",
"{  c #FB9F1A",
"}  c #FA9F1B",
"|  c #FA9C1C",
" . c #FA9F1C",
".. c #FA9F1D",
"X. c #FB9F1D",
"o. c #FA9E1F",
"O. c #FAA117",
"+. c #FAA119",
"@. c #FAA01A",
"#. c #FAA01B",
"$. c #FAA11B",
"%. c #FAA01C",
"&. c #FAA11C",
"*. c #FAA01D",
"=. c #FBA01D",
"-. c #FAA11D",
";. c #FAA21D",
":. c #FAA01E",
">. c #FAA11E",
",. c #FAA11F",
"<. c #FAA21E",
"1. c #FAA31F",
"2. c #F99D22",
"3. c #FA9E28",
"4. c #FB9D2F",
"5. c #FA9835",
"6. c #FAA120",
"7. c #FAA220",
"8. c #FAA221",
"9. c #FBA222",
"0. c #FAA025",
"q. c #FAA325",
"w. c #FAA026",
"e. c #FAA22B",
"r. c #FAA62B",
"t. c #FBA532",
"y. c #FAA437",
"u. c #FBA33B",
"i. c #FAA63A",
"p. c #FAA23C",
"a. c #FBA93B",
"s. c #FAA93C",
"d. c #FBAC3C",
"f. c #FBAA41",
"g. c #FBAB42",
"h. c #FAAC44",
"j. c #FBAF4C",
"k. c #FBB14E",
"l. c #FBB456",
"z. c #FBB65A",
"x. c #FBB65B",
"c. c #FBB660",
"v. c #FCB862",
"b. c #FCB963",
"n. c #FBBD6B",
"m. c #FBBB75",
"M. c #FCBF74",
"N. c #FCBC77",
"B. c #FCBF7A",
"V. c #FCC17A",
"C. c #FCC57C",
"Z. c #FCBE83",
"A. c #FCC381",
"S. c #FCC082",
"D. c #FDC980",
"F. c #FCCB8C",
"G. c #FCCD94",
"H. c #FCD094",
"J. c #FCD396",
"K. c #FDD099",
"L. c #FCD3A1",
"P. c #FDD2A5",
"I. c #FDD7A5",
"U. c #FDD6AA",
"Y. c #FEDBAD",
"T. c #FDD5B6",
"R. c #FDD9B1",
"E. c #FDDBB5",
"W. c #FDDCB4",
"Q. c #FDD9B8",
"!. c #FDDDBA",
"~. c #FDDCBB",
"^. c #FDE1BD",
"/. c #FEE0BF",
"(. c #FEDFC1",
"). c #FEE2C2",
"_. c #FEE5C3",
"`. c #FEE2C4",
"'. c #FEE3C4",
"]. c #FEE2C5",
"[. c #FEE3C5",
"{. c #FEE3C7",
"}. c #FEE6C6",
"|. c #FEE7C6",
" X c #FEE3C8",
".X c #FEE2CB",
"XX c #FEE6C9",
"oX c #FEE3CD",
"OX c #FEE7CF",
"+X c #FEE9D6",
"@X c #FEEBD8",
"#X c #FEEDDC",
"$X c #FEEFDE",
"%X c #FEEEE0",
"&X c #FEF1E0",
"*X c #FEF1E2",
"=X c #FFF0E3",
"-X c #FFF0E4",
";X c #FFF2E4",
":X c #FEF3E8",
">X c seashell",
",X c #FFF7EE",
"<X c #FFF6EF",
"1X c #FEF7F0",
"2X c #FFF7F0",
"3X c #FFF9F1",
"4X c #FFFAF3",
"5X c #FFFBF4",
"6X c #FFFCF7",
"7X c #FFFCF8",
"8X c #FFFCF9",
"9X c #FFFDFA",
"0X c #FFFBFE",
"qX c #FFFCFD",
"wX c #FFFEFE",
"eX c gray100",
"rX c None",
/* pixels */
"rXrXrXrXrXrXrXrXrXrXrXrXrXrXrXrXrXrXrX..rXrXrXrXrXrXrXrXrXrXrXrX",
"rXrXrXrXrXrXrXrXrXrXrXrXrXrXrXrXrXrX} ..R rXrXrXrXrXrXrXrXrXrXrX",
"rXrXrXrXrXrXrXrXrXrXrXrXrXrXrXrXrXrXrXR rXrXrXrXrXR } rXrXrXrXrX",
"rXrXrXrXrXrXrXrXrXrXrXrXrX} } %.} d rXrXrX6.R rXrX} } rXrXrXrXrX",
"rXrXrXrXrXrXrXrXrXrXrX} } ....%.S 2.L rX} R } S rXrXrXrXrXrXrXrX",
"rXrXrXrXrXrXrXrXrX} } } } %.%.0 l.eXn.rX....} } { rXrXrXrXrXrXrX",
"rXrXrXrXrXrXrXrX} } %.%.%.%.%.d d.OXk.rX} } } R rXrXrXrXrX} rXrX",
"rXrXrXrXrXrX} } } } ..%.x d %.x 0 4 S rXrX$...rXrXS %.rX} } rXrX",
"rXrXrXrX} } } } } } } } q.q.} 3.3.$.} R ..rXrXrX! V 6.} rXrXrXrX",
"rXrXrX} } } } } } %.$.0 |.=X> 4X^.4 $...} R 4 L.eXx.4 rXrXrXrXrX",
"rXrXrX} } } } %.%.0 > + [.#X. 4XE.o e $.%.} 4 E.eXb.0 r.R 6.rXrX",
"rXrX} } } } } R S C.J.M.=X,XZ.eX%Xx.e.4 } %.K ..a.c rX} S } rXrX",
"rXrX} } } } } H v #XeXeXeXeXeXeXeXeXeXA.4 %.6.H 4 } } rX9.rXrXrX",
"rX} } } } } } } } 2.p.:XeX@Xu.t.B.0XeXeXj.0 %.%.%.} } =.rXrXrXrX",
"rXrX} } } } } %.} e = (.eX[.- 0 . N.eXeXD.> %.} $.} ..} } rXrXrX",
"rXrX} } } } } } } R d }.eX[.= - > U.eXeXs.e %.} } } } } rXrXrXrX",
"rXrX} } } } } } } R p }.eX<XW.Y.=XeXeXZ.+ O.%.} } } } } rXrXrXrX",
"rXrX} } } } } } } R p }.eXeX6X9XeXeXeX9XV.0 $.} } } } } rXrXrXrX",
"rXrX} } } } } } } R p }.eXXX4 e A m.eXeXeXi.0 %.} } } } rXrXrXrX",
"rXrX} } } } } } } R 0 _.eX}.0 n l   T.eXeXb.> %.} } } } rXrXrXrX",
"rXrX} } } } } } %.8 #  XeX).$ - > y.<XeXeXf.0 %.} } } } rXrXrXrX",
"rX} } } } } } ..r z. XeXeX<XP.K.).eXeXeX!.4 R } } } } } } rXrXrX",
"rXrX} } } } } R u (.eXeXeXeXeXeXeXeX1XG.A x %...} } } } rXrXrXrX",
"rXrX} } } } } } ^ h.f.4.+X=X5.6XoXQ b > V 6.%.%.} } } } rXrXrXrX",
"rXrXrX} } } } ..%.d 4 $ }.=X+ 6X!.$ n %.%.} } } } } } } rXrXrXrX",
"rXrXrX} } } } } } %.%.c H.I.a W.F.d %.} ..} } } } } } rXrXrXrXrX",
"rXrXrXrXrX} } } } } %.%.d 0 %.d c %.} } } } } } } } rXrXrXrXrXrX",
"rXrXrXrXrXrX} } } } ..} } R %.} R ..} } } } } } rXrXrXrXrXrXrXrX",
"rXrXrXrXrXrXrXrX} } } } } } } } } } } } } } rXrXrXrXrXrXrXrXrXrX",
"rXrXrXrXrXrXrXrXrXrX} } } } } } } } } } } rXrXrXrXrXrXrXrXrXrXrX",
"rXrXrXrXrXrXrXrXrXrXrXrX} } } } } } } rXrXrXrXrXrXrXrXrXrXrXrXrX",
"rXrXrXrXrXrXrXrXrXrXrXrXrX} } } } rXrXrXrXrXrXrXrXrXrXrXrXrXrXrX"
};
