/* XPM */
static char *_cc44ffbf2e54dca8676a5aa1b68d49f[] = {
/* columns rows colors chars-per-pixel */
"64 64 75 1 ",
"  c #F77400",
". c #F87300",
"X c #F87C00",
"o c #F98400",
"O c #F98C00",
"+ c #F98C0A",
"@ c #F99202",
"# c #F9940A",
"$ c #FA990D",
"% c #F98715",
"& c #F98F14",
"* c #F98E19",
"= c #FA9413",
"- c #FA9D15",
"; c #FA961D",
": c #FA9F1B",
"> c #FAA017",
", c #FAA11D",
"< c #FA9E24",
"1 c #FA9F2B",
"2 c #FA9B33",
"3 c #FAA221",
"4 c #FBA52C",
"5 c #FBA635",
"6 c #FAAA35",
"7 c #FAA53B",
"8 c #FAAA3D",
"9 c #FAA442",
"0 c #FBA840",
"q c #FBA74C",
"w c #FBAC4C",
"e c #FBB047",
"r c #FBB24D",
"t c #FBA655",
"y c #FBAB50",
"u c #FAA958",
"i c #FBB454",
"p c #FBB55B",
"a c #FBB95F",
"s c #FCB464",
"d c #FBBB63",
"f c #FBB669",
"g c #FCBB6A",
"h c #FCBB72",
"j c #FCC16F",
"k c #FCC375",
"l c #FCC47B",
"z c #FCC584",
"x c #FCC984",
"c c #FCC688",
"v c #FCCB8C",
"b c #FCCE96",
"n c #FDCC9B",
"m c #FDD397",
"M c #FDD49E",
"N c #FDD6A5",
"B c #FDD9A6",
"V c #FDD6AA",
"C c #FDDBAA",
"Z c #FDDDB2",
"A c #FDE1B4",
"S c #FDE1BB",
"D c #FDDEC6",
"F c #FDE3C1",
"G c #FEE8C6",
"H c #FEE9CB",
"J c #FEEBD3",
"K c #FEEEDC",
"L c #FEF1DE",
"P c #FFF2E3",
"I c #FEF6EB",
"U c #FFF8EE",
"Y c #FFFBF4",
"T c #FFFFFF",
"R c None",
/* pixels */
"RRRRRRRRRRRRRRRRRRRRRRRRRRRRRRRRRRRRRRR:RRRRRRRRRRRRRRRRRRRRRRRR",
"RRRRRRRRRRRRRRRRRRRRRRRRRRRRRRRRRRRRRR:::RRRRRRRRRRRRRRRRRRRRRRR",
"RRRRRRRRRRRRRRRRRRRRRRRRRRRRRRRRRRRRR:::::RRRRRRRRRRRRRRRRRRRRRR",
"RRRRRRRRRRRRRRRRRRRRRRRRRRRRRRRRRRRRR:::::RRRRRRRRRRRRRRRRRRRRRR",
"RRRRRRRRRRRRRRRRRRRRRRRRRRRRRRRRRRRRR::::-RRRRRRRRR::RRRRRRRRRRR",
"RRRRRRRRRRRRRRRRRRRRRRRRRRRRRRRRRRRRRRR:RRRRRRRRRRR:::RRRRRRRRRR",
"RRRRRRRRRRRRRRRRRRRRRRRRRRR::::,::RRRRRRRRR::,RRRRR:::RRRRRRRRRR",
"RRRRRRRRRRRRRRRRRRRRRRRRR::::::::,,,RRRRR:-::-,RRRR::RRRRRRRRRRR",
"RRRRRRRRRRRRRRRRRRRRRRR:::::::::,:@@$3RR--:::::#4RRRRRRRRRRRRRRR",
"RRRRRRRRRRRRRRRRRRRRR:::::::::::,O7rO:R#:,::::,:-RRRRRRRRRRRRRRR",
"RRRRRRRRRRRRRRRRRRRR::::::::::::@dTTx@R,:::::::::RRRRRRRRRRRRRRR",
"RRRRRRRRRRRRRRRRRR::::::::::::,##STTP#R3::::::::<RRRRRRRRRRRRRRR",
"RRRRRRRRRRRRRRRR:::::::::::::::-OxTTN@R,,,::::::-RRRRRRRRR:RRRRR",
"RRRRRRRRRRRRRRR::::::::::::::::3-@fx#-R:$,,::,,--RRRRRRRR:::RRRR",
"RRRRRRRRRRRRR:::::::::::::::::::,,OO--4R3-::::-$RR#,:RRRR::::RRR",
"RRRRRRRRRRR::::::::::::::,3,::::,,,,,:$RRR-:--RRR3-,:::RR:::RRRR",
"RRRRRRRRR::::::,:::::::,$OO@3,@OO$3::::--RRR,RR-OO,3:::RRRRRRRRR",
"RRRRRRRR::::::::::::::,-3884--5073:::::::-,RRR$#7<@:,:,RRRRRRRRR",
"RRRRRRR:::::::::::::,-,@kTTAO+HTTgO,::::::--3#+STY7O,,-RRRRRRRRR",
"RRRRRR::::::::::::::,,,OjTTAo+HTTgO,::::::::-OvTTTJ:$$:RRRRRRRRR",
"RRRRR:::::::::::,,,,,33@jTTBO+GTTaO3:::::::3-OZTTTI:@5R3:-:RRRRR",
"RRRRR:::::::::::,,$@@@#ofTTNXoFTTpo-,<::::::3@;PTTgO-R3$::$RRRRR",
"RRRRR:::::::::::,-<<<3,=zTTC+*HTTfo@O@,,:::::,@5zi@-3R-,:::,RRRR",
"RRRR::::::::,:,,$@CTIIIPYTTTPPTTTUJAl1O-,:::::3@OO>,:R,-::-:RRRR",
"RRRR:::::::::::,-OSTTTTTTTTTTTTTTTTTTYc@#3,,>,,,::,:-RR:--:RRRRR",
"RRRR:::::::::::,-OSTTTTTTTTTTTTTTTTTTTTVO-,,,-::::::,-:RRRRRRRRR",
"RRR::::::::::::::-8r7cTTTTTJlhlvZYTTTTTTsO,,,::::::::,-:RRRRRRRR",
"RRR:::::,:::::::,,#OOXCTTTTNXOOOO2KTTTTTA@>,::::::::::,:-RRRRRRR",
"RRRR,:::::::::::::,3:OmTTTTB@$:-$o9YTTTTK$#,:::::::::::,:RRRRRRR",
"RRRR::::::::::::::::-OBTTTTB@-::3-OJTTTTK#$,:::::::::::::RRRRRRR",
"RRRR:::::::::::::::,-OBTTTTN@-3:,O2ITTTTNO:::::::::::::::RRRRRRR",
"RRRR:::::::::::::::,-@BTTTTMXOO@O;DTTTTT0O3:,::::::::::::RRRRRRR",
"RRRR::::::,::::::::3-OBTTTTFwerdvPTTTTKt@:::::::::::::,::RRRRRRR",
"RRRR::::::::::::::::-@NTTTTTTTTTTTTTTTN%o-3::::::::::::::RRRRRRR",
"RRRR:::::::::::::::,-@NTTTTTTTTTTTTTTTTYc@-,:::::,:::::::RRRRRRR",
"RRRR::::::::::::::::-@BTTTTUSSSHKTTTTTTTTbO-<::::::::::::RRRRRRR",
"RRRR::::::::::::::::-@BTTTTN+@#$-7cYTTTTTT8O,::::::::::::RRRRRRR",
"RRRR:::::::::::::::3-ONTTTTBO$--$@X9ITTTTTvO:::::::::::::RRRRRRR",
"RRRR::::::::::::::::-OBTTTTC@:,,33>ocTTTTTNO$,:::::::::::RRRRRRR",
"RRRR:::::::::::::::3-@BTTTTB@$,,::,OhTTTTTNO-::::::::::::RRRRRRR",
"RRRR:::::::::::::::3:OMTTTTN@-,,:-O+FTTTTTvO-,:::::::::::RRRRRRR",
"RRRR:::::::,:::::3-OoXMTTTTMXOOOOo;VTTTTTTpO,::::::::::::RRRRRRR",
"RRR::::::::::::::-:iwhUTTTTDqwiplCITTTTTTJ=$,::::::::::::RRRRRRR",
"RRR,::::::::::::3O0TTTTTTTTTTTTTTTTTTTTTTwO,::::::::::,::RRRRRRR",
"RRRR::::::::::::,OgTTTTTTTTTTTTTTTTTTTTPyO,,:::::::::::::RRRRRRR",
"RRRR:::::::::::,:OCTTTTTTTTTTTTTTTTTUFk=O:,::,:::::::::::RRRRRRR",
"RRRR::,::::::::,-$dxkkkgZTTHsgPTTn081+O$,,:::::::::::::::RRRRRRR",
"RRRRR:::::::::::,,+OoOOXsTTM. STTu OO$,3::::::::,:::::::RRRRRRRR",
"RRRRR:::::::::,:::--:-:OjTTB+OFTTaO3,,::::::::::::::::::RRRRRRRR",
"RRRRRR::::::::::,:::,,,@jTTCo@HTTdO,:::::::::::::::::::RRRRRRRRR",
"RRRRRR::::::::::::::::,OlTTAO+HTTgO,:::::::::,::::::::RRRRRRRRRR",
"RRRRRRR::::::::::::::::$evvd@$jbv8#,::::::::::::::::::RRRRRRRRRR",
"RRRRRRRRR::::::::::::::,$@@@3,@@@$3,:,::::::::::::::RRRRRRRRRRRR",
"RRRRRRRRRR:::::::::::::,,,,,:,,,,::::::::::::::::::RRRRRRRRRRRRR",
"RRRRRRRRRRRR::::::::::::,-::,::::::::::::::::::::RRRRRRRRRRRRRRR",
"RRRRRRRRRRRRRR:::::::::::::::::::::::::::::::::RRRRRRRRRRRRRRRRR",
"RRRRRRRRRRRRRRR::::::::::::::::::::::::::::::,RRRRRRRRRRRRRRRRRR",
"RRRRRRRRRRRRRRRRR::::::::::::::::::,::::::::RRRRRRRRRRRRRRRRRRRR",
"RRRRRRRRRRRRRRRRRRR:::::::::::::::::::::::RRRRRRRRRRRRRRRRRRRRRR",
"RRRRRRRRRRRRRRRRRRRRR:::::::::::::::::::RRRRRRRRRRRRRRRRRRRRRRRR",
"RRRRRRRRRRRRRRRRRRRRRR,:::::::,::::::::RRRRRRRRRRRRRRRRRRRRRRRRR",
"RRRRRRRRRRRRRRRRRRRRRRRR:::::::::::::RRRRRRRRRRRRRRRRRRRRRRRRRRR",
"RRRRRRRRRRRRRRRRRRRRRRRRRR:::::::::RRRRRRRRRRRRRRRRRRRRRRRRRRRRR",
"RRRRRRRRRRRRRRRRRRRRRRRRRRRRR:::RRRRRRRRRRRRRRRRRRRRRRRRRRRRRRRR"
};
