/* XPM */
static char *e0617012ca1642f6eea6d0b21b894eb4[] = {
/* columns rows colors chars-per-pixel */
"128 128 46 1 ",
"  c #FA960B",
". c #FA990E",
"X c #FA9710",
"o c #FA9C14",
"O c #FA9F1B",
"+ c #FAA01D",
"@ c #FA9F22",
"# c #FAA224",
"$ c #FAA52B",
"% c #FAA632",
"& c #FBA933",
"* c #FBAB3A",
"= c #FBAE43",
"- c #FBAE4F",
"; c #FBB047",
": c #FBB14B",
"> c #FBB554",
", c #FBB759",
"< c #FBB95D",
"1 c #FCBB62",
"2 c #FCBF6B",
"3 c #FCC474",
"4 c #FCC779",
"5 c #FCC87E",
"6 c #FCC982",
"7 c #FCCE8B",
"8 c #FDD295",
"9 c #FDD59C",
"0 c #FDD7A2",
"q c #FDD9A5",
"w c #FDDBAB",
"e c #FDDEB3",
"r c #FEE0B6",
"t c #FEE2BB",
"y c #FEE5C3",
"u c #FEE7CA",
"i c #FEE9CD",
"p c #FEECD3",
"a c #FEEFD9",
"s c #FEF1DD",
"d c #FEF4E5",
"f c #FFF7EB",
"g c #FFF8EE",
"h c #FFFAF3",
"j c #FFFFFF",
"k c None",
/* pixels */
"kkkkkkkkkkkkkkkkkkkkkkkkkkkkkkkkkkkkkkkkkkkkkkkkkkkkkkkkkkkkkkkkkkkkkkkkkkkkkkkkkkkkkkkkkkkkkkkkkkkkkkkkkkkkkkkkkkkkkkkkkkkkkkkk",
"kkkkkkkkkkkkkkkkkkkkkkkkkkkkkkkkkkkkkkkkkkkkkkkkkkkkkkkkkkkkkkkkkkkkkkkkkkkkkOOOOkkkkkkkkkkkkkkkkkkkkkkkkkkkkkkkkkkkkkkkkkkkkkkk",
"kkkkkkkkkkkkkkkkkkkkkkkkkkkkkkkkkkkkkkkkkkkkkkkkkkkkkkkkkkkkkkkkkkkkkkkkkkkkOOOOOOkkkkkkkkkkkkkkkkkkkkkkkkkkkkkkkkkkkkkkkkkkkkkk",
"kkkkkkkkkkkkkkkkkkkkkkkkkkkkkkkkkkkkkkkkkkkkkkkkkkkkkkkkkkkkkkkkkkkkkkkkkkOOOOOOOOOkkkkkkkkkkkkkkkkkkkkkkkkkkkkkkkkkkkkkkkkkkkkk",
"kkkkkkkkkkkkkkkkkkkkkkkkkkkkkkkkkkkkkkkkkkkkkkkkkkkkkkkkkkkkkkkkkkkkkkkkkkOOOOOOOOOOkkkkkkkkkkkkkkkkkkkkkkkkkkkkkkkkkkkkkkkkkkkk",
"kkkkkkkkkkkkkkkkkkkkkkkkkkkkkkkkkkkkkkkkkkkkkkkkkkkkkkkkkkkkkkkkkkkkkkkkkkOOOO+OOOO+kkkkkkkkkkkkkkkkkkkkkkkkkkkkkkkkkkkkkkkkkkkk",
"kkkkkkkkkkkkkkkkkkkkkkkkkkkkkkkkkkkkkkkkkkkkkkkkkkkkkkkkkkkkkkkkkkkkkkkkkkOOOOOOOOOOkkkkkkkkkkkkkkkkkkkkkkkkkkkkkkkkkkkkkkkkkkkk",
"kkkkkkkkkkkkkkkkkkkkkkkkkkkkkkkkkkkkkkkkkkkkkkkkkkkkkkkkkkkkkkkkkkkkkkkkkkOOOOOOOOOOkkkkkkkkkkkkkkkkkkkkkkkkkkkkkkkkkkkkkkkkkkkk",
"kkkkkkkkkkkkkkkkkkkkkkkkkkkkkkkkkkkkkkkkkkkkkkkkkkkkkkkkkkkkkkkkkkkkkkkkkkOOOO+OOOOOkkkkkkkkkkkkkkkkkkkkOkkkkkkkkkkkkkkkkkkkkkkk",
"kkkkkkkkkkkkkkkkkkkkkkkkkkkkkkkkkkkkkkkkkkkkkkkkkkkkkkkkkkkkkkkkkkkkkkkkkkkOOOOOOOOkkkkkkkkkkkkkkkkkkkO+OOOkkkkkkkkkkkkkkkkkkkkk",
"kkkkkkkkkkkkkkkkkkkkkkkkkkkkkkkkkkkkkkkkkkkkkkkkkkkkkkkkkkkkkkkkkkkkkkkkkkkkkOOOOkkkkkkkkkkkkkkkkkkkkOOOOOOOkkkkkkkkkkkkkkkkkkkk",
"kkkkkkkkkkkkkkkkkkkkkkkkkkkkkkkkkkkkkkkkkkkkkkkkkkkkkkkkkkkkkkkkkkkkkkkkkkkkkkkkkkkkkkkkkkkkkkkkkkkkkOOOOOOOkkkkkkkkkkkkkkkkkkkk",
"kkkkkkkkkkkkkkkkkkkkkkkkkkkkkkkkkkkkkkkkkkkkkkkkkkkkkkkOOOOOOOOOOO+kkkkkkkkkkkkkkkkkkkOOOOkkkkkkkkkkkOOOOO+Okkkkkkkkkkkkkkkkkkkk",
"kkkkkkkkkkkkkkkkkkkkkkkkkkkkkkkkkkkkkkkkkkkkkkkkkkkkOOOOOOOOOO+OOOOOOOkkkkkkkkkkkkkkkOOOOOOOkkkkkkkkkOOOOOOOkkkkkkkkkkkkkkkkkkkk",
"kkkkkkkkkkkkkkkkkkkkkkkkkkkkkkkkkkkkkkkkkkkkkkkkkkOOOOOOOOOOOOOOOOOOOOOOkkkkkkkkkkkOOOOOOOOOOOkkkkkkkkOOOOOkkkkkkkkkkkkkkkkkkkkk",
"kkkkkkkkkkkkkkkkkkkkkkkkkkkkkkkkkkkkkkkkkkkkkkkkO+OOOOOO+OOOOOOOOOOOOOOOOOkkkkkkkOOOOOOOOOOOOOOOkkkkkkkkOkkkkkkkkkkkkkkkkkkkkkkk",
"kkkkkkkkkkkkkkkkkkkkkkkkkkkkkkkkkkkkkkkkkkkkkkkOOOOOOOOOOOOOOO++OOOOOOOOOOOkkkkk.OOOOOOOOOOO+OOOOkkkkkkkkkkkkkkkkkkkkkkkkkkkkkkk",
"kkkkkkkkkkkkkkkkkkkkkkkkkkkkkkkkkkkkkkkkkkkkkOOOOOOOOOOOOOOO+OOoOOOOOOOOOOOOkkkoOOOOOOOOOOOOOOOOoOkkkkkkkkkkkkkkkkkkkkkkkkkkkkkk",
"kkkkkkkkkkkkkkkkkkkkkkkkkkkkkkkkkkkkkkkkkkkkOOOOOOOOOOOOOOOOOOO+OOOOOOoOOOOokkkOOOOOOOOOOOOOOOOOOOkkkkkkkkkkkkkkkkkkkkkkkkkkkkkk",
"kkkkkkkkkkkkkkkkkkkkkkkkkkkkkkkkkkkkkkkkkk+OOOOOOOOO+OOOOOOOOOOOOOOo$69:XOOOkkkOOOOOOOOOOOOOOOOOOOkkkkkkkkkkkkkkkkkkkkkkkkkkkkkk",
"kkkkkkkkkkkkkkkkkkkkkkkkkkkkkkkkkkkkkkkkOOOOOOOOOOOOOOOOOOOOOOOOOOO2pjjf8$OOkkkO+OOOOOOOOOOOOOOOOOkkkkkkkkkkkkkkkkkkkkkkkkkkkkkk",
"kkkkkkkkkkkkkkkkkkkkkkkkkkkkkkkkkkkkkkkOOOOOOOOOOOOOOOOOOOOOOOOOOo,hjjjjj0OokkkOOOOOO+OOOOOOOOOOOOkkkkkkkkkkkkkkkkkkkkkkkkkkkkkk",
"kkkkkkkkkkkkkkkkkkkkkkkkkkkkkkkkkkkkk+OOOOOOOOOOOOOOOOOOO+OOOOo+O.4jjjjjjtOokkkOOOOOOOOOOOOOOOOOOOkkkkkkkkkkkkkkkkkkkkkkkkkkkkkk",
"kkkkkkkkkkkkkkkkkkkkkkkkkkkkkkkkkkkOO+OOOOOOO+OOOOOOOOOOOOOO++++Oo3jjjjjjtOOkkkOOOOOOOOOOOOOOOOOOOkkkkkkkkkkkkkkkkkkkkkkkkkkkkkk",
"kkkkkkkkkkkkkkkkkkkkkkkkkkkkkkkkk++OOOOOOOOOOOOOO+OOOOOOOOOOOOo+O.3jjjjjjrOOkkkOOOOOOOOOOOOOOOOOOOkkkkkkkkkkkkkkkkkkkkkkkkkkkkkk",
"kkkkkkkkkkkkkkkkkkkkkkkkkkkkkkkkOO++OOOOOO+OOOOOOOOOOOOOOOOOOO++OO%thjjjs<oOkkkOOOOOOOOOOOOOOOOOOOkkkkkkkkkkkkkkkkkOOOkkkkkkkkkk",
"kkkkkkkkkkkkkkkkkkkkkkkkkkkkkkOOOOOOOOOOOOOOOOOOOOOOOOOOOOOOOo@+OOOO3pf8%oOOkkkOOOOOOOOOOOOOOOOOOOkkkkkkkkkkkkkkkkOOOOOOkkkkkkkk",
"kkkkkkkkkkkkkkkkkkkkkkkkkkkkOOOOOOOOOOOOOOOOOOOOOOOOOOOOOOOO@@ooOOOOo$%OOOOo#kkOOOOOOOOOOOOOOOOOOOkkkkkkkkkkkkkkkkOOO+OOkkkkkkkk",
"kkkkkkkkkkkkkkkkkkkkkkkkkkOOOOOOOOOOO+OOOOOOOOOOOOOOO+OOOOOOOOOOOOOOOOoOOOOOOkkkOOOOOOOOOOOOOOOOOkkkkkOOOOkkkkkkkkOOOOOOkkkkkkkk",
"kkkkkkkkkkkkkkkkkkkkkkkkOOOOOOOOOOOOOOOOOOOOOOOOOOOOOOOOOOOOOOOOOOOOOOOOOOOOoOkkkOOOOOOOOOOOOOOOkkkkOOOOOOOkkkkkkOOOOOOOkkkkkkkk",
"kkkkkkkkkkkkkkkkkkkkkkkOOOOOOOOOOOOOOOOOOOOOOOOOOOOOOOOOOOOOOOOOOOOOOOOOOOOOOokkkk+OOOOOOO++OOkkkkOOOOOOOOO+OkkkOOOOOOOOkkkkkkkk",
"kkkkkkkkkkkkkkkkkkkkkOOOOOO+OOOOOOOOOOOOOOOO+OOOOOOOOOOOOOOOOOOOOOOOOOOOOOOOOOOOkkkkOoOOOOOoOkkkkOOOOOOOOOOOOOOOkkkOOOkkkkkkkkkk",
"kkkkkkkkkkkkkkkkkkk+OOOOOOOOO+OOOOOOOOO+OOOOOOOOOOOOOOOOOOOOOOOOOOOOOO+OOOOOOOOOOOkkkkOOOOOkkkkOOOOOOOOOOOOOOOOkkkkkkkkkkkkkkkkk",
"kkkkkkkkkkkkkkkkkk++OOOOOOOOOOOOOOOOOOOOOOOOOOOOOOOOOOOOOOOOOOOOOOOOOOOOOOOOOOOOOOOkkkkkkkkkkOoOOOOOOOOOOOOOOOOkkkkkkkkkkkkkkkkk",
"kkkkkkkkkkkkkkkkOOOOO+OOOOOOOOOOOOOOOOOOOOOOOOOOOO.o.ooOOOOOoooo..OOOOOOOOOOOOOOOOOOOkkkkkkkOOOo.O.OOOOOOOOOOOOkkkkkkkkkkkkkkkkk",
"kkkkkkkkkkkkkkkO+OOOOOOOOOOOOOOOOOOOOOOOOOOOOOOO+>111<1&OOOO;11111;OOOOOOOOOOOOOOOOOOOO++#OOOOO%*=:%OOOOOOOOOOOkkkkkkkkkkkkkkkkk",
"kkkkkkkkkkkkkkOOOOOOOOOOOOOOOOOOOOOOOOOOOOOOOOOO#ijhjhh4.OOowjhhhj0OOOOOOOOOOOOOOOOOOOOOOOOO@O6dffhp=oOOOOOOOOOkkkkkkkkkkkkkkkkk",
"kkkkkkkkkkkkkO+OOOOOOOOOOOOOOOOOOO+OOOOOOOOOOOOO#pjjjjj4.OOOwjjjjjqoOOOOOOOOOOOOOOOOOOOOOOOOX:fjjjjjt@OOOOOOOOOkkkkkkkkkkkkkkkkk",
"kkkkkkkkkkkkOOOOOOOOOOO+OOOOOOOOOOOOOOOOOOOOOOOo#pjjjjj4oOOowjjjjjqoOOOOOOOOOOOOOOOOOOOOOOOOOqjjjjjjj6OOOOOOOOkkkkkkkkkkkkkkkkkk",
"kkkkkkkkkkkkOOOOOOOOOOOOOO+OOOOOOOOOOOOOOOOOOOOO#pjjjjj4oOOOwjjjjjqoOOOO+OOOOOOOOOOOOO+OOO+.:fjjjjjjjd%oOOOOOkkk+OOkkkkkkkkkkkkk",
"kkkkkkkkkkkOOOOOOOOOOOOOOOOOOOOOOOOOOOOOOOOOOOOO#pjjjjj4XOOOwjjjjjqOOOOOOOOOOOOOOOOOOOOOOOO.4jjjjjjjjf*OOOOokkkO.OOO+kkkkkkkkkkk",
"kkkkkkkkkkOOOOOOOOOOOOOOOOOOOOOOOOOOOOOOOOOOO++o#pjjjjj4.OOOwjjjjjqoOOOOOOOOOOOOOOOOOOOOOOOO=djjjjjjjwOOOOOkkOOOOOOOOOkkkkkkkkkk",
"kkkkkkkkkkOOOO+OOOO+OOOOOOOOO+OOOOO+OOOOOOOOOOOO#pjjjjj4.OOowjjjjjqoOOOOOOOOOOOOOOOOOOOOOOOOo5hjjjjjg:.OOOOkOOOOOOOOOOOkkkkkkkkk",
"kkkkkkkkkkOOOOOOOOOOOOOOOOOOOOOOOOOOOO++OOOOOOOO#pjjjjj4oOOOwjjjjjqOOOOOOOOOOOOOOOOOOOOOOOOOO@tjjjjj0OOOOO+kOOOOOOOOOOOkkkkkkkkk",
"kkkkkkkkkOOOOOOOOOOOOOOOOOOOOOOOOOOOOOoooOOOoOoo@pjjjjj3.OO.wjjjjj0oOOOOOOOOOOOOOOOOOOOOOOOOOo*qtw07%OOOOO+k+OOOOOOOOOOkkkkkkkkk",
"kkkkkkkkkOOOOOOOOOOOOOOOOOOOOOOOOOOO#***&*&*&**&=ajjjjj7%***ejjjjjw#Ooo.OOOOO+OOOOOOOOOOOOOOOOOOOOooOOOOOO#k+OOOOOOOOOOkkkkkkkkk",
"kkkkkkkkkOOOOOOOOOOOOOOOOOOOOOOOO+O.3gffgffffffffjjjjjjhffffjjjjjjhiyw81*O.OOOOOOOOOOOOOOOOOOOOOOOOOOOOOOOOkOOOOOOOOOOOkkkkkkkkk",
"kkkkkkkkOOOO+OOOOOOOOOOO+OOOOOOOO++.4jjjjjjjjjjjjjjjjjjjjjjjjjjjjjjjjjjjfy4%.OOOOOO+OOOOOOOOOOOOOOOOOOOOOOOkOOOOOOOOOOOkkkkkkkkk",
"kkkkkkkkOOOOOOO+OOOOOOOOOOOOOOOOOO+.4jjjjjjjjjjjjjjjjjjjjjjjjjjjjjjjjjjjjjjs6$oOOOOOOOOOOOOOOOOOOOOOOOOOOOOkkOOOOOOOOOkkkkkkkkkk",
"kkkkkkkkO+OOOOOOOOOOOO+OOOOOOOO+OO+.4jjjjjjjjjjjjjjjjjjjjjjjjjjjjjjjjjjjjjjjjy=oOOOOOOOOOOOOOOOOOOOOOOOOOOoOkkOOOOOOOkkkkkkkkkkk",
"kkkkkkkkOOOOOOOOOOOOOOOOOOOOOOOOOOOo4jjjjjjjjjjjjjjjjjjjjjjjjjjjjjjjjjjjjjjjjjs:XOOOOOOOOOOOOOOOOOOOOOOOOOOOOkkkOOOkkkkkkkkkkkkk",
"kkkkkkkkOOOOOOOOOOOOOOOOOOOOOOOOOOO.5jjjjjjjjjjjjjjjjjjjjjjjjjjjjjjjjjjjjjjjjjju$OOOOOOOO@OOOOOOOOOOOOOOOOOOOOOkkkkkkkkkkkkkkkkk",
"kkkkkkkkOOOOOOOOOOOOOOOO+OOOOOOOOO+o:77779tgjjjjjjjjjjjhdsapsdghjjjjjjjjjjjjjjjj7oOOOOOOOOOOOOOOOOOOOOOOOOOOOOOOkkkkkkkkkkkkkkkk",
"kkkkkkkkOOOOOOOOOOOOOOOOOOOOOOOOOOOOO..o.oO<djjjjjjjjjj7$$#$$&*>6edjjjjjjjjjjjjja%OOOOOOOOOOOOOOOO+OOOOOOOOOOOOOOOkkkkkkkkkkkkkk",
"kkkkkkkkOOOOOOOOOOOO+OOOOOOOOOOOOOOOOO++OOO.8jjjjjjjjjj3.OOoOOoo.O*8hjjjjjjjjjjjh1oOOOOOOOOOOOOOOOOOOOOOOOOOOOOOOOkkkkkkkkkkkkkk",
"kkkkkkkkOOO+OOOOOOOOOOOOOOOOOOOOOOOOOOO+OOO.1jjjjjjjjjj4.OOOOOOOOOoO3hjjjjjjjjjjj8oOOOOOOOOOOOOOOOOOOOOOOOOOOOOOOOkkkkkkkkkkkkkk",
"kkkkkkkkOOOOOOOOOOOOOOOOOOOOOOOOOOOOOOOOOOO.<jjjjjjjjjj4oOOOOOOOOOOOo0jjjjjjjjjjjwoOOOOOOOOOOOO+OO+OOOOOOOOOOOOOOOkkkkkkkkkkkkkk",
"kkkkkkkkOOOO+OOOOOO+OOOOOOOOO+OOOOOOOOOOOO+o1jjjjjjjjjj3o+OOOOOOOOOOo:gjjjjjjjjjjeOOOOOOOOOOOOOOOOOOOOOOOOOOOOOOOOkkkkkkkkkkkkkk",
"kkkkkkkkOOOOOOOOOOOOOOOOOOOOOOOOOO+OOOOO+O+.1hjjjjjjjjj4.OOOOOOOOOOOO$ajjjjjjjjjjeoOOOOO+OOOOOOOOOOOOOOOOOOOOOOOOOkkkkkkkkkkkkkk",
"kkkkkkkkOOO+OOOOOOOO+OOOOOOOOOOOOOOOOOOOOO+o<jjjjjjjjjj4.O+OOOOOOOOOo$ajjjjjjjjjj0.OOOOOOOOOOOOOOOOOOOOOOOOO+OOOOOkkkkkkkkkkkkkk",
"kkkkkkkkOOOOO+OOOOOOOOOOOOOOOOOOOOOOOOOOOOO.<jjjjjjjjjj4o+OOOOOOOOOOo*fjjjjjjjjjj3oOOOOOOOOOOOOOOOOOOOOOOOOOOO+OOOkkkkkkkkkkkkkk",
"kkkkkkkkOOOOOOOOOO+OOOOOOOOOOOOOOOOOOOOOOO+o1hjjjjjjjjj4.+OOOOOOOOOOo3jjjjjjjjjjf=OOOOO+OOOOOOOOOOOOOOO+OO+OOOOOOOkkkkkkkkkkkkkk",
"kkkkkkkkOOOOOOOOOOOOOOOOOOOOOOOOOOOOOOOOOOOo1hjjjjjjjjj4o++OOOOOOOO.=sjjjjjjjjjjrOOOOOOOOOOOOOOOO+OOOOOOOOOOOOOOOOkkkkkkkkkkkkkk",
"kkkkkkkkOOOOOOOOOOOOOOOOO+OOOOOOOOOOOOO+OOO.1jjjjjjjjjj3.+OOOOOOO.@1ajjjjjjjjjjh>.OOOOOOOOOOOOOOOOOOOOOOOOOOOOOOOOkkkkkkkkkkkkkk",
"kkkkkkkkOOOOOOOOOOOOOOOOOOOOOOOOOOOOOOOOOOOo1jjjjjjjjjj3 ..XooO#=3yhjjjjjjjjjjh6OOOOOOOOOOOOOOOOOOOOOOOOOOOOOOOOOOkkkkkkkkkkkkkk",
"kkkkkkkkOOO+OOOOOOOOO+OOOOOOOOO+OOOOOOOOOOOo<hjjjjjjjjjy898990epfjjjjjjjjjjjjd3OOOOOOOOOOOOOOOOOOOOOOOOOOOOOOO+OOOkkkkkkkkkkkkkk",
"kkkkkkkkOOOOOOOOOOOOOOOOOOOOOOOOOOOOOOOOOOOo1hjjjjjjjjjjjjjjjjjjjjjjjjjjjjjjp- oOOOOOOOOOOOOOOOOOOOOOOOO+OOOOOOOOOkkkkkkkkkkkkkk",
"kkkkkkkkOOOOOOOOOOOOOOOOOOOOOOOOOOOOOOOOOOO.1jjjjjjjjjjjjjjjjjjjjjjjjjjjjjjjfe3%oOOOOOOOOOOO@OOOOOOOOOOOOOOOOOOOOOkkkkkkkkkkkkkk",
"kkkkkkkkOOOOOOOOOOOOOOOOOOOOOOOOOOOOOOOOOOOo<jjjjjjjjjjjjjjjjjjjjjjjjjjjjjjjjjjs6@OOOOOOOOOOOOOOOOOOOOOOOOOOOOOOOOkkkkkkkkkkkkkk",
"kkkkkkkkOOOOOOOOOOOOOOOOOOO+OOOOOOOOOOOOOOO.1jjjjjjjjjjjjjjjjjjjjjjjjjjjjjjjjjjjjy*XOOOOOOOOOOOOOOOOOOOOOOOOOOOOOOkkkkkkkkkkkkkk",
"kkkkkkkkOOOOOO+OOOOOOOOOOOOOOOOOOOOOOOOOOOOo1hjjjjjjjjjjjjjjjjjjjjjjjjjjjjjjjjjjjju%OOOOOOOOOOOOOOOOOOOOOOOOOOOOOOkkkkkkkkkkkkkk",
"kkkkkkkkOOOOOOOOOOO+OOOOOOOOOOOOOOOOOOOOOOOo<jjjjjjjjjjpqq0900etpfhjjjjjjjjjjjjjjjj0OOOOOOOOOOOOOOOOOOOOOOOOO+OOOOkkkkkkkkkkkkkk",
"kkkkkkkkOOOOOOOOOOOOOOOOOOOOOOOOOOOOOOOOOOOo1hjjjjjjjjj4.OooooOO#*<8uhjjjjjjjjjjjjjh>.OOOOOOOOOOOOOOOOOOOOOOOOOOOOkkkkkkkkkkkkkk",
"kkkkkkkkOOOOOOOOOOOOOOOOOOOOOO+OOOOOOOOOOOOo1jjjjjjjjjj4.OOOOOOOOoo.@,yjjjjjjjjjjjjj0oOOOO+OOOOOOOOOOOOOOOOOOOOOOOkkkkkkkkkkkkkk",
"kkkkkkkkOOOOOOOOOOOOOOOOOOOOOOOOO+OOOOOOOOOo1hjjjjjjjjj3.+O+OOOOOOOOOo@0jjjjjjjjjjjja$OOOOOOOOOOOOOOOOOOOO+OO+OOO+kkkkkkkkkkkkkk",
"kkkkkkkkOOO+OOOOOOOOO+OO+OOOOOOOOOOO+OOOOOOo1hjjjjjjjjj4oOOOOOOOOOOOOOO#yjjjjjjjjjjjf=oOOOOOOOOOOOOOOOOOOOOOOOOOOOkkkkkkkkkkkkkk",
"kkkkkkkkOOOOOOOOOOOOOOOOOOOOOOOOOO+OOOOOOOO.1hjjjjjjjjj4.OOOOOOOOOOOOOO.2jjjjjjjjjjjh>oOOOOOOOO+OOOOOOOOOOO+OOOOOOkkkkkkkkkkkkkk",
"kkkkkkkkOOOOOOOOOOOOOOOOOOOOOOOOOOOOOOOOOOOo1jjjjjjjjjj4oOOOOOOOOOOOOOOo=fjjjjjjjjjjj,OOOOOOOOOOOOOOOOOOOOOOOOOOOOkkkkkkkkkkkkkk",
"kkkkkkkkOOOOOOOOOOOOOOOOOOOOOOOOOOOOOOOOOOOo1hjjjjjjjjj3oOOOOOOOOOOOOOOo&fjjjjjjjjjjh<.O+OOOOOOOOOOOOOOOOOOOOOOOOOkkkkkkkkkkkkkk",
"kkkkkkkkOOOOOOOOO+OOOOOOOOOOO+OOOOOOOOOOOOO.1jjjjjjjjjj4.OOOOOOOOOOOOOOO=gjjjjjjjjjjh>OOOOOOOOOO@OOOOOOOOOOOOOOOOOkkkkkkkkkkkkkk",
"kkkkkkkk++OOOOOOOOOO+OOOOOOOOOOOOOOOOOOOOOOo1jjjjjjjjjj4o+OOOOOOOOOOOOOo4jjjjjjjjjjjg*OOOOOOOOOOOOOOOOOOOOOOOOOOOOkkkkkkkkkkkkkk",
"kkkkkkkkO+OOOOOOOOOOOOOOOO+OOOOOOOOOOOOOOOOo1hjjjjjjjjj4.+OOOOOOOOOOOOO$ijjjjjjjjjjjs%OOOOOOOOOOOOOOOO+OO+OOOOOOOOkkkkkkkkkkkkkk",
"kkkkkkkkO+OOOOOOOOOOOOOOOOOO+OOO+OOOOOOOOOOo1hjjjjjjjjj4oOOOOOOOOOOOOX$ejjjjjjjjjjjjrOOOOOOOOO+OOOOOOOOOOOOOOOOOOOkkkkkkkkkkkkkk",
"kkkkkkkkOOOOOOOOOOOOOOOOOOOOOOOOOOOOOOOOOOO.3jjjjjjjjjj3.OOOOOOOOo.o@2ijjjjjjjjjjjjj6.OOOOO+OOOOO+OOOOOOOOOOOOO+OOkkkkkkkkkkkkkk",
"kkkkkkkkOOOOOOOOOOOOOOOOOOO+OOOOOOOOOOooooo%yjjjjjjjjjj3 ooo.OOO$*18pjjjjjjjjjjjjjjf=OOOOOOOO+OOOOOOOOOOOOOOOOOOOOkkkkkkkkkkkkkk",
"kkkkkkkkOOOOOOOOO+OOOOOOOOOOOOOOOOOOO*0wwqeajjjjjjjjjjjy888990etafjjjjjjjjjjjjjjjjj0OOOOOOOOOOOOOOOOOOOOOOOOOOOOOOkkkkkkkkkkkkkk",
"kkkkkkkkOOOOOOO+OOOOOOOOOOOOOOOOOOOO.1jjjjjjjjjjjjjjjjjjjjjjjjjjjjjjjjjjjjjjjjjjjja*oOOOOOOOOOOOOOOOOOOOOOOOOOOO+Okkkkkkkkkkkkkk",
"kkkkkkkkOOOOOOOOOOOOOO+OOOOOOOOOOOOOo7jjjjjjjjjjjjjjjjjjjjjjjjjjjjjjjjjjjjjjjjjjjf,.OOOOOOOOOOOOOOOOOOOO+OOOOOOOOOkkkkkkkkkkkkkk",
"kkkkkkkkOOOOOOOOOOOOOOOOOOOOOOOOOOOOowjjjjjjjjjjjjjjjjjjjjjjjjjjjjjjjjjjjjjjjjjja,oOOOOOOOOOOOOOOOOOOOOOOOOOOOOOOOkkkkkkkkkkkkkk",
"kkkkkkkkOOOOOOOO+OOOOOOOOOOOOOOOOOOO+ujjjjjjjjjjjjjjjjjjjjjjjjjjjjjjjjjjjjjjjjhw*.OOOOOOOOOOOOOOOOOOOOOOOOOOOOOOOOkkkkkkkkkkkkkk",
"kkkkkkkkOOO+OOOOOOOOOOOOOOO+OOOOOOOo&djjjjjjjjjjjjjjjjjjjjjjjjjjjjjjjjjjjjjjfw>OOOOOOOOOOOOOOOO+OOOOO+OOOOO+OOOOOOkkkkkkkkkkkkkk",
"kkkkkkkkOOOOOOOOOOOOOOOOOOOOOOOOOOOO:hjjjjjjjjjjjjjjjjjjjjjjjjjjjjjjjjjjhde5=O.OOOOOOOOOOOOOOOOOO+OOOOOOOOOOOO+OOkkkkkkkkkkkkkkk",
"kkkkkkkkkOOOOOOOOOOOOOOOOOOOO+OOOOO.<aaaaaaaaaaaahjjjjjdaaaagjjjjjde0861=%O.OOOOOOOOOOOOOOOOOOOOOOO+OOOOOOOO+OOOOkkkkkkkkkkkkkkk",
"kkkkkkkkkOOOOOOOOOOOOOOOOOOOOOOOOOOO+##$$$###$$@%ajjjjj6O$$#ejjjjjwoOXoXoOOOOOOOOOOOOOOOOOOOOOOOOOOOOOOOOOOOOOOOOkkkkkkkkkkkkkkk",
"kkkkkkkkk+OOO+OOOO+OOOOOOOOOOOOOOOOOOOoOOOOOoOOo#pjjjjj4XoOowjjjjjq.OOOOOOOOOOOOOOOOOOOOOOOOOOOOOOOOOOOOOOOOOOOOOkkkkkkkkkkkkkkk",
"kkkkkkkkkkOOOOOOOOOOOOOOOOO+OOOOOOOOOOOOOOOOOOOO#pjjjjj4.OOOwjjjjjqOOOOOOOOOOOOOOOOOOOOOOOOOOOOOOOOOOOOOOOOOOOOOkkkkkkkkkkkkkkkk",
"kkkkkkkkkkOOOOOOOOOOOOO+OOOOOOOOOOOOOOOOOOOOOOOo#ijjjjj4.OOOwjjjjj0oOOOOOOOOOOOOOOOO+OOOOOOOOOOOOOOOOOOOOOOOOOOOkkkkkkkkkkkkkkkk",
"kkkkkkkkkkkOOOOOOOOOOOOOOOOOOO+OOOOOOO+OOOOOOOOO#pjjjjj4oOOOwjjjjjqoOOOOOOOOOOOOOOOOOOOO+OOOOOOOOO+OOOOOOOO+OOOkkkkkkkkkkkkkkkkk",
"kkkkkkkkkkkOOOOOOOOOOOOOOOOOOOOO+OOOOOOOOOOOOOOO#pjjjjj3.OOOwjjjjjqOOOOOOOOOO+OOOOOOOOOOOOOOOOO+OOOOOOOOOOOOOOOkkkkkkkkkkkkkkkkk",
"kkkkkkkkkkkkOO+OOOOOOOOOOOOOOOOOOOOOOOOOOOOOOOOO#pjjjjj4XOOowjjjjj0oOOOOOOOOOOOOOOOOOOOOOOOOOOOOOOOOOOOOOOOOOOkkkkkkkkkkkkkkkkkk",
"kkkkkkkkkkkkOOOO+OOOOOOOOOOOOOOOOOOOOOOOOOOOOOOo#pjjjjj4.+OOwjjjjjqOOOOOOOOOOOOOOOOOOOOOOOOOOOOOOOOOOOOOOOOOOkkkkkkkkkkkkkkkkkkk",
"kkkkkkkkkkkkkOOOOOOOOOOOOOOOOOOOOOOOOOOOOOOOOOOO#pjjjjj4.OOOwjjjjj0oOOOOOOOOOOOO+OOOOOOOOOOOOOOOOOOOOOOOOOOOOkkkkkkkkkkkkkkkkkkk",
"kkkkkkkkkkkkkk+OOOOOOO+OOOOO+OOOOOOOOOOOOOOOOOOO#ugffff3.OOO0hgffg9OOOOOOOOOOOOOOOOOOO+OOOOOOOOOOOOOOOOOO+OOkkkkkkkkkkkkkkkkkkkk",
"kkkkkkkkkkkkkkk+OOOOOOOOOOOOOOOOOOOOO+OO+OOOOOOO+&*****$OOOO%**&*&%OOOOO+OOOOOOOOOOOOOOOOOOOOOOOOOOO+OOOOOOkkkkkkkkkkkkkkkkkkkkk",
"kkkkkkkkkkkkkkkkOO+OOOOOOOOOOOOOOOOOOOOOOOOOO+OO+oOooooOOOOOOoooOOOOOOOOOOOOOOOOOOOOOOOOOOOOOOOOOOOOOOOOOOkkkkkkkkkkkkkkkkkkkkkk",
"kkkkkkkkkkkkkkkkkkOOOOOOOOOOOOOOOOOOOOOOOOOOOOOO+OOOOO++OOOOOOOOOOOOOOOOOOOOOOO+OOOOOOOOOOOOOOO+OOOOOOOOkkkkkkkkkkkkkkkkkkkkkkkk",
"kkkkkkkkkkkkkkkkkkkOOOOOOOOOO+OOOOOOO+OOOOOOOOOOOOOOOO+OOOOOOOO+OOOOOOOOOOOOOOOOOOOOOOOOOOOOOOOOOOOOOOOkkkkkkkkkkkkkkkkkkkkkkkkk",
"kkkkkkkkkkkkkkkkkkkkkOOOO+OOOOOOOOOOOOOOOOOOOOOOOOOOOOOOOOOOOOOOOOOOOOOOOOOOOOOOOO+OOOOOO+OOOOOOOOOOOkkkkkkkkkkkkkkkkkkkkkkkkkkk",
"kkkkkkkkkkkkkkkkkkkkkkkOOOOOOOOOOOO+OOOO+OOOOOOO+OOOOOOOOOOOOOOOOOOOOOOO+OOOOOOOOOOO+OOOOOOOOOOOO++kkkkkkkkkkkkkkkkkkkkkkkkkkkkk",
"kkkkkkkkkkkkkkkkkkkkkkkkkO+OOOOOOOOOO+OOOOOOOOOOOOOOOOOOOOOOOOOOOOOOOOOOOOOOOOOOO+OOOOOOOOOOOOOOOkkkkkkkkkkkkkkkkkkkkkkkkkkkkkkk",
"kkkkkkkkkkkkkkkkkkkkkkkkkkOOOOOOOOOOOOOOOOOOOOO+OOOOOOOOOOOOOOOOOOOOOOOOOOOOOOOOOOOOOOOOOOOOO+Okkkkkkkkkkkkkkkkkkkkkkkkkkkkkkkkk",
"kkkkkkkkkkkkkkkkkkkkkkkkkkkkOOOOOOOOOOOOOOOOOOOOOOOOOOOOOOOOOOOOOOOOOOOOOOOOOOOOOOOOOOOOOOOOOOkkkkkkkkkkkkkkkkkkkkkkkkkkkkkkkkkk",
"kkkkkkkkkkkkkkkkkkkkkkkkkkkkkkOOOOOOOOOOOOOOOOOO+OOOOOOOOOOOOOOOOOOOOOOOOOOOOOOOOOOOOOOOOOOOkkkkkkkkkkkkkkkkkkkkkkkkkkkkkkkkkkkk",
"kkkkkkkkkkkkkkkkkkkkkkkkkkkkkkkkOOOOOOOOOOOOOOOOOOOOOOOOOOO+OOOOOOOOOOOOOOOOOOOOOOOOOOOOOOkkkkkkkkkkkkkkkkkkkkkkkkkkkkkkkkkkkkkk",
"kkkkkkkkkkkkkkkkkkkkkkkkkkkkkkkkkkOOOOOOOOOOOOOOOOOOOOO+OOOOOOOOOOOOOOOOOOOOO+OOOOOOO+OOkkkkkkkkkkkkkkkkkkkkkkkkkkkkkkkkkkkkkkkk",
"kkkkkkkkkkkkkkkkkkkkkkkkkkkkkkkkkkkOOO+OOOOOOOOOOOOOOOOOOOOOOOOOOOOOOOOO+OOOOOOOOOO+OOOkkkkkkkkkkkkkkkkkkkkkkkkkkkkkkkkkkkkkkkkk",
"kkkkkkkkkkkkkkkkkkkkkkkkkkkkkkkkkkkkkOO++OOOOOOOOOOOOOOOOOOOOO+OOOOOOOOOOOOOOOOOOOOOOkkkkkkkkkkkkkkkkkkkkkkkkkkkkkkkkkkkkkkkkkkk",
"kkkkkkkkkkkkkkkkkkkkkkkkkkkkkkkkkkkkkkkOOOOOOOOOOOOOOOOOOOOOOOOOOOOOOOOOOOO+OOOOOOOkkkkkkkkkkkkkkkkkkkkkkkkkkkkkkkkkkkkkkkkkkkkk",
"kkkkkkkkkkkkkkkkkkkkkkkkkkkkkkkkkkkkkkkkOOOOOOOOOOOOOOOOOOOOOOOOOOOOOOOOOOOOOOOOOOkkkkkkkkkkkkkkkkkkkkkkkkkkkkkkkkkkkkkkkkkkkkkk",
"kkkkkkkkkkkkkkkkkkkkkkkkkkkkkkkkkkkkkkkkkkOOOOO+OOOOOOOOOO+OOOOOOOOOOOOOOOOOOOOOkkkkkkkkkkkkkkkkkkkkkkkkkkkkkkkkkkkkkkkkkkkkkkkk",
"kkkkkkkkkkkkkkkkkkkkkkkkkkkkkkkkkkkkkkkkkkkkOOOOOOOOOOOOOOOOOOOOOOOOOOOOOOOO+Okkkkkkkkkkkkkkkkkkkkkkkkkkkkkkkkkkkkkkkkkkkkkkkkkk",
"kkkkkkkkkkkkkkkkkkkkkkkkkkkkkkkkkkkkkkkkkkkkkOOOO+OOOOOOOOOOOOOOOOOOOOOOOOOOOkkkkkkkkkkkkkkkkkkkkkkkkkkkkkkkkkkkkkkkkkkkkkkkkkkk",
"kkkkkkkkkkkkkkkkkkkkkkkkkkkkkkkkkkkkkkkkkkkkkkkOOOOOOOOOOOOOOOOOOOOOOOOOOOOkkkkkkkkkkkkkkkkkkkkkkkkkkkkkkkkkkkkkkkkkkkkkkkkkkkkk",
"kkkkkkkkkkkkkkkkkkkkkkkkkkkkkkkkkkkkkkkkkkkkkkkkkOOOOOO+OOOO+OOOOOO+OOOOOkkkkkkkkkkkkkkkkkkkkkkkkkkkkkkkkkkkkkkkkkkkkkkkkkkkkkkk",
"kkkkkkkkkkkkkkkkkkkkkkkkkkkkkkkkkkkkkkkkkkkkkkkkkkOOOOOOOOOOOOOOOOOOOOOkkkkkkkkkkkkkkkkkkkkkkkkkkkkkkkkkkkkkkkkkkkkkkkkkkkkkkkkk",
"kkkkkkkkkkkkkkkkkkkkkkkkkkkkkkkkkkkkkkkkkkkkkkkkkkkkkOOOOO+OOOOOOOOOOkkkkkkkkkkkkkkkkkkkkkkkkkkkkkkkkkkkkkkkkkkkkkkkkkkkkkkkkkkk",
"kkkkkkkkkkkkkkkkkkkkkkkkkkkkkkkkkkkkkkkkkkkkkkkkkkkkkkkkOOOOOOOOO+kkkkkkkkkkkkkkkkkkkkkkkkkkkkkkkkkkkkkkkkkkkkkkkkkkkkkkkkkkkkkk",
"kkkkkkkkkkkkkkkkkkkkkkkkkkkkkkkkkkkkkkkkkkkkkkkkkkkkkkkkkkkkkkkkkkkkkkkkkkkkkkkkkkkkkkkkkkkkkkkkkkkkkkkkkkkkkkkkkkkkkkkkkkkkkkkk"
};
